<svg xmlns="http://www.w3.org/2000/svg" viewBox="0 0 300 75" xmlns:v="https://vecta.io/nano"><path d="M289.8 52.8s-5 5.1-11.7 5.1c-7.6 0-12.4-5.8-12.4-12.5 0-6.8 4.8-12.4 12.1-12.4 6.3 0 10.4 4.3 10.4 4.3l4.4-6.8s-4.9-5.9-15.3-5.9c-13.2 0-21.7 9.5-21.7 20.9 0 11.6 8.5 20.9 21.7 20.9 10.7 0 16.4-6.5 16.4-6.5l-3.9-7.1zm-56.7 10.6l-.5 1.9h7.6V49.6a24.66 24.66 0 0 1 .3-3.9c-1.8 3.2-3.4 6.5-4.8 10-1 2.5-1.9 5.1-2.6 7.7" fill="#00aec7"/><g fill="#1b3d6f"><path d="M239.7 33.6v1-2.3-6.9h-9.5v28c0-.1.1-.1.1-.2 2.7-5.2 5.9-10.2 10-14.5 2-2.2 4.3-4.1 6.8-5.7 2.2-1.3 4.6-2.3 7.1-2.7V25s-.9-.2-1.8-.2c-6.1.2-10.9 3.1-12.7 8.8M6.6 9.8v8.7h18.3v46.9H35V18.5h18.2V9.8zm97.4 34c0 7.1-4 13.5-11.2 13.5-4.9 0-6.2-3.3-6.2-8.1V25.5h-9.9v25.7c0 10.9 5.3 15.2 13.9 15.2 6.8 0 11.9-2.8 13.8-6.9v6h9.5v-40H104v18.3zm25.2-7.2c0-2.5 2.5-3.6 5.1-3.6 6.1 0 9.8 3.4 9.8 3.4l3.7-7.4s-4.4-4.5-13.4-4.5c-8.6 0-15.3 4.3-15.3 11.7 0 12.8 19.4 12.1 19.4 18 0 2.3-2.4 3.6-5.2 3.6-6.5 0-10.9-4.4-10.9-4.4l-4.5 7s5.6 5.9 15.5 5.9c9.5 0 15.3-5.3 15.3-12-.1-12.8-19.5-12.1-19.5-17.7"/><path d="M162.1 49.5V34h9.1v-7.9h-9.1V14.6h-9.9V34v16.7c0 13.4 11 15 16.5 15 1.9 0 3.1-.2 3.1-.2l3.1-8.7-4.9.2c-2.7 0-7.9-.9-7.9-7.5m32.2-6.6l4.9-14.9c1.1-3.1 2.3-8.6 2.3-8.6h.2l2.2 8.6 4.9 14.9h-14.5zm12.5-33.1h-10.6l-19.6 55.6H187l4.7-14.2h19.5l4.7 14.2h9.3 1.1l-.5-1.5-19-54.1zM58.7 33.6v1.1-2.3-6.9h-9.5v39.9h9.9V49.6c0-2.3.2-4.5.9-6.5 1.9-5.9 6.6-8.4 10.9-8.4 1.3 0 2.3.2 2.3.2v-9.8s-.9-.2-1.8-.2c-6.1.1-10.9 3-12.7 8.7"/></g></svg>